# Blender v2.82 (sub 7) OBJ File: 'crystal.blend'
# www.blender.org
mtllib spirit_stone_ore.mtl
o Cube_Cube.001
v 0.416432 0.061095 0.627057
v 0.377141 0.565618 0.650731
v 0.403414 0.011844 0.353601
v 0.336802 0.558980 0.362543
v 0.639390 0.097604 0.706703
v 0.606891 0.608610 0.644183
v 0.640196 0.055227 0.412408
v 0.653055 0.577087 0.322564
v 0.506610 0.933679 0.516844
v 0.506610 0.933679 0.516844
v 0.506610 0.933679 0.516844
v 0.506610 0.933679 0.516844
vt 0.375000 0.000000
vt 0.625000 0.000000
vt 0.625000 0.250000
vt 0.375000 0.250000
vt 0.625000 0.500000
vt 0.375000 0.500000
vt 0.625000 0.750000
vt 0.375000 0.750000
vt 0.625000 1.000000
vt 0.375000 1.000000
vt 0.125000 0.500000
vt 0.125000 0.750000
vt 0.625000 0.250000
vt 0.625000 0.500000
vt 0.875000 0.500000
vt 0.875000 0.750000
vt 0.625000 0.750000
vt 0.625000 0.000000
vt 0.625000 1.000000
vn -0.9892 -0.1028 0.1042
vn 0.0421 -0.0733 -0.9964
vn 0.9969 0.0296 0.0725
vn -0.1638 0.0261 0.9861
vn 0.1235 -0.9801 0.1555
vn -0.1374 0.4298 -0.8924
vn 0.0000 0.0000 1.0000
vn 0.9385 0.3296 0.1024
vn -0.9219 0.3681 0.1206
vn -0.0396 0.3538 0.9345
usemtl Material.002
s off
f 1/1/1 2/2/1 4/3/1 3/4/1
f 3/4/2 4/3/2 8/5/2 7/6/2
f 7/6/3 8/5/3 6/7/3 5/8/3
f 5/8/4 6/7/4 2/9/4 1/10/4
f 3/11/5 7/6/5 5/8/5 1/12/5
f 8/5/6 4/3/6 10/13/6 11/14/6
f 11/14/7 10/15/7 9/16/7 12/17/7
f 6/7/8 8/5/8 11/14/8 12/17/8
f 4/3/9 2/2/9 9/18/9 10/13/9
f 2/9/10 6/7/10 12/17/10 9/19/10
o Cube.001_Cube.002
v 0.648169 0.101284 0.558784
v 0.784309 0.416254 0.628176
v 0.591126 0.119003 0.377574
v 0.738611 0.461247 0.423238
v 0.798689 0.037119 0.573883
v 0.964711 0.301267 0.517314
v 0.749591 0.057517 0.376984
v 0.965446 0.376591 0.387731
v 0.996903 0.596816 0.533842
v 0.996903 0.596816 0.533842
v 0.996903 0.596816 0.533842
v 0.996903 0.596816 0.533842
vt 0.375000 0.000000
vt 0.625000 0.000000
vt 0.625000 0.250000
vt 0.375000 0.250000
vt 0.625000 0.500000
vt 0.375000 0.500000
vt 0.625000 0.750000
vt 0.375000 0.750000
vt 0.625000 1.000000
vt 0.375000 1.000000
vt 0.125000 0.500000
vt 0.125000 0.750000
vt 0.625000 0.250000
vt 0.625000 0.500000
vt 0.875000 0.500000
vt 0.875000 0.750000
vt 0.625000 0.750000
vt 0.625000 0.000000
vt 0.625000 1.000000
vn -0.8955 0.3352 0.2927
vn -0.0504 0.1123 -0.9924
vn 0.7939 -0.5416 -0.2764
vn 0.2096 -0.1308 0.9690
vn -0.3772 -0.9261 0.0125
vn 0.0723 0.5442 -0.8358
vn 0.0000 0.0000 1.0000
vn 0.9929 -0.1050 -0.0554
vn -0.5398 0.7889 0.2936
vn 0.4736 -0.1005 0.8750
usemtl Material.002
s off
f 13/20/11 14/21/11 16/22/11 15/23/11
f 15/23/12 16/22/12 20/24/12 19/25/12
f 19/25/13 20/24/13 18/26/13 17/27/13
f 17/27/14 18/26/14 14/28/14 13/29/14
f 15/30/15 19/25/15 17/27/15 13/31/15
f 20/24/16 16/22/16 22/32/16 23/33/16
f 23/33/17 22/34/17 21/35/17 24/36/17
f 18/26/18 20/24/18 23/33/18 24/36/18
f 16/22/19 14/21/19 21/37/19 22/32/19
f 14/28/20 18/26/20 24/36/20 21/38/20
o Cube.002_Cube.003
v 0.465246 0.011638 0.814421
v 0.478696 0.334961 1.038070
v 0.412616 0.110494 0.656610
v 0.314912 0.386701 0.875361
v 0.659497 0.073699 0.863553
v 0.659330 0.333841 0.950328
v 0.592295 0.147298 0.675166
v 0.587034 0.478402 0.779982
v 0.482331 0.626278 1.087168
v 0.482331 0.626278 1.087168
v 0.482331 0.626278 1.087168
v 0.482331 0.626278 1.087168
vt 0.375000 0.000000
vt 0.625000 0.000000
vt 0.625000 0.250000
vt 0.375000 0.250000
vt 0.625000 0.500000
vt 0.375000 0.500000
vt 0.625000 0.750000
vt 0.375000 0.750000
vt 0.625000 1.000000
vt 0.375000 1.000000
vt 0.125000 0.500000
vt 0.125000 0.750000
vt 0.625000 0.250000
vt 0.625000 0.500000
vt 0.875000 0.500000
vt 0.875000 0.750000
vt 0.625000 0.750000
vt 0.625000 0.000000
vt 0.625000 1.000000
vn -0.8364 -0.3967 0.3783
vn -0.2665 0.4176 -0.8687
vn 0.9469 0.1069 -0.3032
vn 0.1653 -0.4662 0.8691
vn 0.3049 -0.8061 -0.5071
vn -0.4295 0.7478 -0.5064
vn 0.0000 0.0000 1.0000
vn 0.8654 0.4980 0.0553
vn -0.7175 -0.1070 0.6882
vn 0.4309 -0.1552 0.8890
usemtl Material.002
s off
f 25/39/21 26/40/21 28/41/21 27/42/21
f 27/42/22 28/41/22 32/43/22 31/44/22
f 31/44/23 32/43/23 30/45/23 29/46/23
f 29/46/24 30/45/24 26/47/24 25/48/24
f 27/49/25 31/44/25 29/46/25 25/50/25
f 32/43/26 28/41/26 34/51/26 35/52/26
f 35/52/27 34/53/27 33/54/27 36/55/27
f 30/45/28 32/43/28 35/52/28 36/55/28
f 28/41/29 26/40/29 33/56/29 34/51/29
f 26/47/30 30/45/30 36/55/30 33/57/30
o Cube.003_Cube.004
v 0.426028 0.152087 0.389179
v 0.336744 0.446649 0.267376
v 0.448849 0.014829 0.266367
v 0.374820 0.349772 0.143409
v 0.562468 0.225449 0.428525
v 0.586016 0.389957 0.227858
v 0.596313 0.084756 0.292824
v 0.556963 0.314049 0.011400
v 0.459943 0.572325 -0.023400
v 0.459943 0.572325 -0.023400
v 0.459943 0.572325 -0.023400
v 0.459943 0.572325 -0.023400
vt 0.375000 0.000000
vt 0.625000 0.000000
vt 0.625000 0.250000
vt 0.375000 0.250000
vt 0.625000 0.500000
vt 0.375000 0.500000
vt 0.625000 0.750000
vt 0.375000 0.750000
vt 0.625000 1.000000
vt 0.375000 1.000000
vt 0.125000 0.500000
vt 0.125000 0.750000
vt 0.625000 0.250000
vt 0.625000 0.500000
vt 0.875000 0.500000
vt 0.875000 0.750000
vt 0.625000 0.750000
vt 0.625000 0.000000
vt 0.625000 1.000000
vn -0.9679 -0.2513 -0.0004
vn -0.1879 -0.5968 -0.7801
vn 0.9995 0.0324 -0.0063
vn -0.0244 0.5723 0.8197
vn 0.1592 -0.6548 0.7389
vn -0.5961 -0.3230 -0.7351
vn 0.0000 0.0000 1.0000
vn 0.9202 0.3142 -0.2337
vn -0.9304 0.0893 -0.3556
vn 0.2661 0.8387 0.4752
usemtl Material.002
s off
f 37/58/31 38/59/31 40/60/31 39/61/31
f 39/61/32 40/60/32 44/62/32 43/63/32
f 43/63/33 44/62/33 42/64/33 41/65/33
f 41/65/34 42/64/34 38/66/34 37/67/34
f 39/68/35 43/63/35 41/65/35 37/69/35
f 44/62/36 40/60/36 46/70/36 47/71/36
f 47/71/37 46/72/37 45/73/37 48/74/37
f 42/64/38 44/62/38 47/71/38 48/74/38
f 40/60/39 38/59/39 45/75/39 46/70/39
f 38/66/40 42/64/40 48/74/40 45/76/40
o Cube.004_Cube.005
v 0.268452 0.075726 0.593157
v 0.153640 0.360472 0.665782
v 0.246181 0.030213 0.420761
v 0.091597 0.380203 0.461355
v 0.399963 0.152769 0.619927
v 0.333174 0.403322 0.619504
v 0.382304 0.113594 0.432723
v 0.271538 0.410068 0.342776
v 0.106656 0.616364 0.505248
v 0.106656 0.616364 0.505248
v 0.106656 0.616364 0.505248
v 0.106656 0.616364 0.505248
vt 0.375000 0.000000
vt 0.625000 0.000000
vt 0.625000 0.250000
vt 0.375000 0.250000
vt 0.625000 0.500000
vt 0.375000 0.500000
vt 0.625000 0.750000
vt 0.375000 0.750000
vt 0.625000 1.000000
vt 0.375000 1.000000
vt 0.125000 0.500000
vt 0.125000 0.750000
vt 0.625000 0.250000
vt 0.625000 0.500000
vt 0.875000 0.500000
vt 0.875000 0.750000
vt 0.625000 0.750000
vt 0.625000 0.000000
vt 0.625000 1.000000
vn -0.8817 -0.4144 0.2256
vn -0.2567 -0.1779 -0.9500
vn 0.9439 0.2765 -0.1807
vn 0.1004 -0.0995 0.9900
vn 0.4928 -0.8576 0.1473
vn -0.5620 0.1856 -0.8060
vn 0.0000 0.0000 1.0000
vn 0.7153 0.6841 -0.1427
vn -0.9567 0.0069 0.2910
vn 0.0866 0.5408 0.8367
usemtl Material.002
s off
f 49/77/41 50/78/41 52/79/41 51/80/41
f 51/80/42 52/79/42 56/81/42 55/82/42
f 55/82/43 56/81/43 54/83/43 53/84/43
f 53/84/44 54/83/44 50/85/44 49/86/44
f 51/87/45 55/82/45 53/84/45 49/88/45
f 56/81/46 52/79/46 58/89/46 59/90/46
f 59/90/47 58/91/47 57/92/47 60/93/47
f 54/83/48 56/81/48 59/90/48 60/93/48
f 52/79/49 50/78/49 57/94/49 58/89/49
f 50/85/50 54/83/50 60/93/50 57/95/50
